<svg id="Layer_1" data-name="Layer 1" xmlns="http://www.w3.org/2000/svg" viewBox="0 0 200 200"><defs><style>.cls-1{fill:#2f93e0;}</style></defs><title>Octopus</title><path class="cls-1" d="M20.88,150.38C35.42,141,52.5,125,46,106.06c-3.53-10.3-8.43-19.13-9.08-30.27a68.18,68.18,0,0,1,4.14-27.72c13-35,51.78-51.55,86.79-41,32.43,9.74,54.74,47.4,41.3,80.21-7.76,18.94-11.23,33.56,6.07,48.29,4.69,4,16.07,10,16,17.06-.06,9.28-18.25-2-20.29-3.59,2.31,4,25.26,28,10.65,29.66-13.44,1.57-25.31-17.21-33.39-25.26C134.68,139.88,137,169.82,137,176c-.1,9.77-7,29.56-19.38,16.67-10.23-10.64-6.36-27.62-13.47-39.44-7.79-12.95-20.75,12.95-24,17.69-3.62,5.29-21.72,30.93-28.92,17.27-5.84-11.08,3.5-28.46,8.09-38.49-1.67,3.64-13.54,9-17,10.78-7.84,4-15.79,6.3-24.6,5.67-18.24-1.31-4.25-11,3.18-15.78Z"/></svg>